<?xml version="1.0" encoding="UTF-8"?>
<svg id="Layer_2" data-name="Layer 2" xmlns="http://www.w3.org/2000/svg" viewBox="0 0 2129.98 263.55">
  <defs>
    <style>
      .cls-1 {
        fill: #71d8a7;
      }
    </style>
  </defs>
  <g id="Layer_1-2" data-name="Layer 1">
    <g>
      <g>
        <polygon class="cls-1" points="426.92 187.07 426.92 263.55 323.21 263.55 184.76 53.07 237.86 0 294.38 0 426.92 187.07"/>
        <polygon class="cls-1" points="519.46 45.33 519.46 121.81 415.75 121.81 365.58 53.07 418.69 0 475.21 0 519.46 45.33"/>
        <polygon class="cls-1" points="31.95 101.63 0 53.06 53.13 .01 109.65 .01 181.63 101.63 31.95 101.63"/>
        <polygon class="cls-1" points="242.18 187.05 242.18 263.55 138.47 263.55 41.19 115.69 191.6 115.69 242.18 187.05"/>
      </g>
      <g>
        <path class="cls-1" d="M570.67,42.68h58.5l31.12,147.18h2.18l32.05-147.18h71.26l34.85,147.49h2.18l32.36-147.49h57.57l-52.59,202.26h-73.75l-34.54-140.65h-2.18l-32.36,140.65h-73.44l-53.21-202.26Z"/>
        <path class="cls-1" d="M1035.26,207.91h-81.84l-11.82,37.03h-58.5l67.52-202.26h88.37l66.59,202.26h-58.5l-11.82-37.03ZM967.42,164.03h54.14l-24.27-76.86h-5.6l-24.27,76.86Z"/>
        <path class="cls-1" d="M1218.23,179.9l-44.5,65.03h-64.72l73.44-102.69-71.88-99.57h65.97l42.63,64.41,44.19-64.41h65.03l-73.75,99.57,72.19,102.69h-65.97l-42.63-65.03Z"/>
        <path class="cls-1" d="M1532.82,204.17c0,25.83-15.87,40.76-43.56,40.76h-112.95c-22.09,0-42.01-11.51-42.01-39.21v-33.61h56.94v27.38h84.95v-22.72l-117-28.32c-19.29-4.67-24.89-14.62-24.89-36.41v-35.16c0-24.27,14-34.23,37.96-34.23h120.11c33.61,0,40.45,16.8,40.45,44.19v24.89h-56.63v-23.96h-84.95v20.23l116.07,28c20.85,4.98,25.52,14,25.52,39.83v28.32Z"/>
        <path class="cls-1" d="M1618.71,90.6h-69.08v-47.92h195.72v47.92h-69.08v154.34h-57.57V90.6Z"/>
        <path class="cls-1" d="M1880.72,207.91h-81.84l-11.82,37.03h-58.5l67.52-202.26h88.37l66.59,202.26h-58.5l-11.82-37.03ZM1812.89,164.03h54.14l-24.27-76.86h-5.6l-24.27,76.86Z"/>
        <path class="cls-1" d="M2003.33,90.6h-69.08v-47.92h195.72v47.92h-69.08v154.34h-57.57V90.6Z"/>
      </g>
    </g>
  </g>
</svg>